<svg width="136" height="32" viewBox="0 0 136 32" fill="none" xmlns="http://www.w3.org/2000/svg">
<path d="M119.352 31.5673V8.18431H127.016L127.319 11.7351H127.622C128.113 10.5515 128.878 9.61327 129.917 8.92044C130.985 8.19874 132.27 7.83789 133.771 7.83789C134.146 7.83789 134.478 7.85232 134.767 7.88119C135.085 7.88119 135.388 7.89563 135.676 7.9245V15.5023C135.33 15.4157 134.969 15.358 134.594 15.3291C134.247 15.3002 133.901 15.2858 133.555 15.2858C132.342 15.2858 131.303 15.4879 130.437 15.892C129.6 16.2962 128.95 16.9313 128.488 17.7973C128.055 18.6634 127.824 19.8181 127.795 21.2615V31.5673H119.352Z" fill="black"/>
<path d="M104.882 31.9722C102.088 31.9722 99.7126 31.4828 97.7544 30.504C95.7962 29.4964 94.2988 28.1001 93.2621 26.3152C92.2254 24.5302 91.707 22.443 91.707 20.0535C91.707 17.4913 92.2398 15.3033 93.3053 13.4896C94.3995 11.6471 95.9258 10.2508 97.884 9.30076C99.871 8.32193 102.189 7.83252 104.838 7.83252C107.891 7.83252 110.411 8.4227 112.398 9.60305C114.413 10.7546 115.868 12.3812 116.76 14.4828C117.653 16.5556 117.955 18.9739 117.668 21.7377H99.871C99.8998 22.7165 100.13 23.5514 100.562 24.2423C100.994 24.9045 101.599 25.4083 102.376 25.7538C103.183 26.0992 104.104 26.272 105.141 26.272C106.321 26.272 107.315 26.0705 108.121 25.6674C108.956 25.2644 109.489 24.7318 109.72 24.0696H117.452C117.192 25.7106 116.487 27.1213 115.335 28.3016C114.212 29.482 112.743 30.3888 110.929 31.0222C109.144 31.6555 107.128 31.9722 104.882 31.9722ZM99.7414 17.7648L99.3526 17.2466H110.195L109.72 17.7648C109.748 16.7859 109.561 15.9655 109.158 15.3033C108.784 14.6412 108.222 14.1517 107.473 13.8351C106.753 13.4896 105.875 13.3169 104.838 13.3169C103.802 13.3169 102.909 13.504 102.16 13.8782C101.412 14.2237 100.821 14.7275 100.389 15.3897C99.9862 16.0518 99.7702 16.8435 99.7414 17.7648Z" fill="black"/>
<path d="M62.9609 31.5671V0H71.4048V11.9513H71.7945C72.5162 10.6523 73.6277 9.62745 75.1288 8.87688C76.6299 8.12632 78.261 7.75103 80.0219 7.75103C81.5519 7.75103 82.9232 7.93868 84.1356 8.31396C85.3769 8.68924 86.445 9.3099 87.34 10.1759C88.2349 11.0131 88.9277 12.139 89.4185 13.5535C89.9092 14.9391 90.1546 16.6568 90.1546 18.7064V31.5671H81.7107V20.222C81.7107 18.9518 81.5664 17.8692 81.2777 16.9743C81.0179 16.0506 80.5415 15.3433 79.8487 14.8525C79.1847 14.3618 78.2465 14.1164 77.0341 14.1164C75.8794 14.1164 74.869 14.3762 74.0029 14.8958C73.1658 15.3866 72.5162 16.065 72.0544 16.931C71.6213 17.7971 71.4048 18.793 71.4048 19.9189V31.5671H62.9609Z" fill="black"/>
<path d="M53.469 31.5672C51.3905 31.5672 49.8172 31.0187 48.7491 29.9217C47.6809 28.8247 47.1469 27.237 47.1469 25.1585L47.1467 14.1243H44.2305L44.2306 7.83257H47.1469V5.77812L55.4096 0L55.4176 7.83257H61.0901L61.09 14.1243H55.4174L55.4176 22.6903C55.4176 23.3831 55.5763 23.845 55.8939 24.0759C56.2403 24.3069 56.7022 24.4223 57.2796 24.4223H61.0901V31.5672H53.469Z" fill="black"/>
<path d="M8.48719 31.9999C5.80247 31.9999 3.70954 31.3936 2.2084 30.1812C0.736134 28.9687 0 27.381 0 25.418C0 24.1767 0.259812 23.0797 0.779436 22.127C1.29906 21.1744 2.02076 20.395 2.94454 19.7887C3.89718 19.1536 5.0086 18.6773 6.27879 18.3598C7.57785 18.0134 9.00681 17.8401 10.5657 17.8401H18.6199V22.1703H12.3844C11.6049 22.1703 10.9121 22.2425 10.3059 22.3868C9.69965 22.5312 9.23776 22.791 8.92021 23.1663C8.60266 23.5127 8.44389 23.989 8.44389 24.5952C8.44389 25.3169 8.73257 25.8654 9.30993 26.2407C9.88729 26.616 10.6523 26.8036 11.6049 26.8036C12.6153 26.8036 13.4669 26.6449 14.1598 26.3273C14.8815 26.0098 15.4299 25.5623 15.8052 24.985C16.2094 24.3787 16.4115 23.7003 16.4115 22.9498V16.4545C16.4115 15.7905 16.2671 15.242 15.9784 14.809C15.7186 14.376 15.3 14.0585 14.7227 13.8564C14.1742 13.6254 13.4669 13.51 12.6009 13.51C11.908 13.51 11.2585 13.5966 10.6523 13.7698C10.0749 13.9141 9.59861 14.1739 9.22332 14.5492C8.84804 14.8956 8.64597 15.4008 8.6171 16.0648H0.606228C0.750568 14.3327 1.34236 12.846 2.38161 11.6047C3.42086 10.3634 4.82095 9.41072 6.5819 8.74676C8.34285 8.0828 10.3636 7.75081 12.6442 7.75081C14.5206 7.72195 16.2382 7.96732 17.7971 8.48694C19.356 8.9777 20.554 9.62723 21.3912 10.4355H21.651C22.6902 9.59836 23.9893 8.94883 25.5482 8.48694C27.107 8.02506 28.7381 7.79412 30.4413 7.79412C32.8662 7.79412 34.988 8.1261 36.8067 8.79006C38.6542 9.45402 40.1554 10.4067 41.3101 11.648C42.4937 12.8893 43.3309 14.376 43.8216 16.1081C44.3412 17.8113 44.4856 19.731 44.2546 21.8672H22.2139V17.3638H35.7674C35.7097 16.4978 35.4499 15.7761 34.988 15.1987C34.555 14.5925 33.9488 14.1306 33.1693 13.8131C32.3899 13.4955 31.4517 13.3368 30.3547 13.3368C29.1422 13.3368 28.1174 13.5533 27.2803 13.9863C26.4431 14.4193 25.7936 15.0255 25.3317 15.805C24.8986 16.5555 24.6821 17.4504 24.6821 18.4897V20.828C24.6821 21.7518 24.812 22.5456 25.0719 23.2096C25.3605 23.8735 25.7647 24.422 26.2843 24.855C26.8328 25.2881 27.4679 25.62 28.1896 25.851C28.9402 26.0531 29.7773 26.1541 30.7011 26.1541C31.9136 26.1541 32.9817 25.952 33.9055 25.5479C34.8581 25.1149 35.4643 24.5808 35.7241 23.9457H44.0381C43.7206 25.6489 42.9411 27.1067 41.6998 28.3192C40.4585 29.5028 38.8419 30.4121 36.85 31.0472C34.887 31.6823 32.6786 31.9999 30.2248 31.9999C27.7999 31.9999 25.6492 31.6679 23.7728 31.0039C21.8964 30.34 20.3086 29.2863 19.0096 27.8429H18.8364C18.0569 28.7955 17.1187 29.575 16.0217 30.1812C14.9248 30.7874 13.7412 31.2493 12.471 31.5668C11.2008 31.8555 9.87285 31.9999 8.48719 31.9999Z" fill="black"/>
</svg>
