<svg width="132" height="32" viewBox="0 0 132 32" fill="none" xmlns="http://www.w3.org/2000/svg">
<path d="M102.268 7.84082C105.293 7.84087 107.8 8.43206 109.788 9.61328C111.776 10.7657 113.217 12.3939 114.11 14.4971C115.003 16.5713 115.291 18.9913 114.975 21.7568H97.3398C97.3687 22.7364 97.5991 23.5722 98.0312 24.2637C98.4634 24.9263 99.0688 25.4448 99.8467 25.8193C100.625 26.165 101.532 26.3378 102.569 26.3379C103.722 26.3379 104.702 26.1367 105.509 25.7334C106.344 25.3012 106.878 24.7676 107.108 24.1338H114.802C114.542 25.776 113.85 27.1879 112.727 28.3691C111.603 29.5216 110.148 30.415 108.361 31.0488C106.575 31.6827 104.558 32 102.311 32C99.5444 32 97.1811 31.5099 95.2217 30.5303C93.2912 29.5219 91.8078 28.1241 90.7705 26.3379C89.7332 24.5516 89.2139 22.4626 89.2139 20.0713C89.2139 17.5073 89.7475 15.3179 90.8135 13.5029C91.9084 11.6591 93.4353 10.2613 95.3945 9.31055C97.3539 8.33095 99.6455 7.84082 102.268 7.84082ZM129.866 7.84082C130.212 7.84082 130.514 7.85598 130.773 7.88477C131.033 7.88477 131.278 7.89892 131.509 7.92773V15.1445C131.25 15.1157 130.961 15.1016 130.645 15.1016C130.328 15.0728 130.01 15.0586 129.693 15.0586C128.368 15.0586 127.273 15.2597 126.408 15.6631C125.573 16.0376 124.939 16.6431 124.507 17.4785C124.103 18.3141 123.887 19.3802 123.858 20.6768V31.5244H115.949V8.18652H123.124L123.383 11.7305H123.686C124.204 10.4053 124.997 9.42581 126.062 8.79199C127.157 8.15814 128.425 7.84082 129.866 7.84082ZM56.1484 8.19238H61.292V14.2783H56.1484V23.2139C56.1485 23.8755 56.3071 24.3358 56.624 24.5947C56.9698 24.8248 57.4307 24.9404 58.0068 24.9404H61.292V31.501H54.5918C52.4886 31.5009 50.9181 30.9832 49.8809 29.9473C48.8436 28.8826 48.3252 27.2998 48.3252 25.1992V14.2783H44.2188V8.19238H48.3252V2.32129L56.1484 1.15625V8.19238ZM44.6045 6.7334H25.457L27.6621 12.4316H42.4434V18.7334H29.9521L32.3291 24.7334H44.7344V31.4668H25.9326L23.9443 25.5537H10.8057L8.81738 31.4668H0L11.7559 0H44.6045V6.7334ZM70.6416 12.043H70.9873C71.65 10.6617 72.6877 9.59682 74.0996 8.84863C75.5115 8.10051 77.0676 7.72656 78.7676 7.72656C80.1218 7.72658 81.3607 7.91401 82.4844 8.28809C83.6081 8.63341 84.5731 9.20894 85.3799 10.0146C86.2154 10.8203 86.8642 11.8845 87.3252 13.208C87.7862 14.5317 88.0166 16.1437 88.0166 18.043V31.4668H80.1074V19.5967C80.1074 18.3882 79.9629 17.3525 79.6748 16.4893C79.4155 15.626 78.9688 14.9785 78.335 14.5469C77.7011 14.1153 76.837 13.8995 75.7422 13.8994C74.6761 13.8994 73.7536 14.1436 72.9756 14.6328C72.2265 15.0932 71.6505 15.7265 71.2471 16.5322C70.8437 17.3379 70.6416 18.2297 70.6416 19.208V31.4668H62.7324V0H70.6416V12.043ZM15.9482 10.1006L12.7939 19.3379H21.9561L18.8018 10.1006L17.5049 6.08594H17.2451L15.9482 10.1006ZM102.268 13.3301C101.23 13.3301 100.337 13.5172 99.5879 13.8916C98.8675 14.2373 98.2906 14.7416 97.8584 15.4043C97.5328 15.9392 97.3315 16.5589 97.25 17.2627H107.1C107.059 16.5084 106.876 15.8596 106.546 15.3174C106.171 14.6549 105.624 14.1655 104.903 13.8486C104.183 13.503 103.305 13.3301 102.268 13.3301Z" fill="black"/>
</svg>
